<?xml version="1.0" encoding="UTF-8"?>
<svg id="Layer_2" data-name="Layer 2" xmlns="http://www.w3.org/2000/svg" viewBox="0 0 404.82 365.18">
  <defs>
    <style>
      .cls-1 {
        fill: #fff;
      }

      .cls-2 {
        fill: none;
        stroke: #dc2e2c;
        stroke-miterlimit: 10;
        stroke-width: 7px;
      }
    </style>
  </defs>
  <g id="Layer_1-2" data-name="Layer 1">
    <path class="cls-1" d="M276.38,0H128.43c-19.46,0-37.44,10.38-47.16,27.23L7.3,155.36c-9.73,16.85-9.73,37.61,0,54.46l73.97,128.13c9.73,16.85,27.71,27.23,47.16,27.23h147.95c19.46,0,37.44-10.38,47.16-27.23l73.97-128.13c9.73-16.85,9.73-37.61,0-54.46L323.55,27.23C313.82,10.38,295.84,0,276.38,0Z"/>
    <path class="cls-2" d="M263.22,40.39h-121.63c-13.17,0-25.34,7.03-31.93,18.43l-60.81,105.33c-6.59,11.41-6.59,25.46,0,36.87l60.81,105.33c6.59,11.41,18.76,18.43,31.93,18.43h121.63c13.17,0,25.34-7.03,31.93-18.43l60.81-105.33c6.59-11.41,6.59-25.46,0-36.87l-60.81-105.33c-6.59-11.41-18.76-18.43-31.93-18.43Z"/>
    <g>
      <path d="M74.88,183.33c3.63-6.26,7.28-12.5,10.9-18.77,17.99-31.15,35.98-62.3,53.95-93.47,.51-.89,1.07-1.18,2.08-1.18,42.65,.03,85.3,.02,127.94,.02h1.53c-.27,.5-.46,.88-.68,1.25-3.69,6.41-7.41,12.8-11.07,19.23-.54,.96-1.13,1.33-2.26,1.33-34.23-.03-68.46-.02-102.69-.06-1.23,0-1.84,.41-2.43,1.43-17.14,29.73-34.3,59.45-51.49,89.15-.51,.89-.49,1.51,.02,2.39,17.23,29.77,34.43,59.56,51.61,89.36,.52,.9,1.08,1.18,2.09,1.18,34.68-.03,69.35-.02,104.03,0,.39,0,.95,.26,1.13,.57,3.95,6.77,7.87,13.57,11.78,20.36,.11,.2,.17,.42,.33,.82h-1.42c-42.85,0-85.7,0-128.55,.03-1.01,0-1.49-.38-1.96-1.18-21.35-37.01-42.72-74-64.09-111-.24-.42-.51-.82-.76-1.23,0-.08,0-.16,0-.24Z"/>
      <path d="M178.69,268.85c2.34-4.02,4.57-7.86,6.8-11.7,1.77-3.04,3.55-6.07,5.28-9.13,.37-.65,.78-.88,1.52-.87,3.07,.04,6.15-.03,9.23,.05,.96,.02,1.42-.34,1.87-1.12,15.41-26.72,30.84-53.42,46.27-80.13,.2-.35,.41-.69,.69-1.17,.26,.42,.47,.75,.67,1.09,3.61,6.23,7.19,12.46,10.83,18.67,.45,.77,.42,1.32-.02,2.08-11.4,19.69-22.78,39.4-34.17,59.11-.24,.41-.45,.84-.76,1.39,.47,.02,.81,.05,1.15,.05,4.45,0,8.9-.02,13.35,.02,.77,0,1.22-.19,1.63-.9,11.78-20.46,23.59-40.9,35.41-61.33,.36-.62,.46-1.08,.07-1.76-9.04-15.6-18.05-31.21-27.07-46.82-.12-.21-.26-.4-.45-.7-.27,.44-.51,.8-.73,1.18-20.44,35.39-40.87,70.78-61.32,106.17-4.83,8.36-9.75,16.68-14.6,25.03-.37,.64-.78,.9-1.53,.89-4.94-.03-9.87-.03-14.81,0-.76,0-1.15-.27-1.52-.9-15.97-27.7-31.96-55.39-47.97-83.07-.4-.69-.41-1.17-.01-1.86,16.01-27.68,32-55.37,47.98-83.06,.35-.6,.68-.95,1.47-.95,26.59,.02,53.17,.02,79.76,.02,.23,0,.46,.02,.83,.04-.23,.45-.38,.81-.58,1.14-3.79,6.54-7.61,13.07-11.37,19.62-.45,.77-.94,1.02-1.81,1.02-17.97-.03-35.93-.01-53.9-.04-.9,0-1.42,.2-1.91,1.05-11.71,20.36-23.46,40.69-35.24,61.01-.48,.82-.43,1.38,.03,2.17,9.75,16.82,19.47,33.66,29.19,50.5,.21,.37,.45,.73,.76,1.24,.32-.52,.57-.92,.81-1.33,21.03-36.4,42.04-72.81,63.08-109.2,5.08-8.78,10.23-17.52,15.32-26.29,.39-.67,.79-.97,1.61-.95,3.03,.06,6.07,.07,9.1,0,1.06-.03,1.64,.29,2.18,1.24,13.56,23.54,27.15,47.06,40.74,70.58,2.35,4.06,4.68,8.13,7.05,12.17,.39,.66,.44,1.14,.03,1.85-16.01,27.68-32,55.36-47.98,83.06-.39,.68-.81,.95-1.61,.95-24.72-.02-49.45-.02-74.17-.02-.32,0-.63-.03-1.18-.06Z"/>
    </g>
  </g>
</svg>