<?xml version="1.0" standalone="no"?>
<!DOCTYPE svg PUBLIC "-//W3C//DTD SVG 20010904//EN"
 "http://www.w3.org/TR/2001/REC-SVG-20010904/DTD/svg10.dtd">
<svg version="1.0" xmlns="http://www.w3.org/2000/svg"
 width="1080.000000pt" height="1080.000000pt" viewBox="0 0 1080.000000 1080.000000"
 preserveAspectRatio="xMidYMid meet">

<g transform="translate(0.000000,1080.000000) scale(0.100000,-0.100000)"
fill="#000000" stroke="none">
<path d="M5960 6310 l0 -1590 358 0 c369 1 454 6 583 40 228 59 456 209 596
394 93 122 167 313 193 491 6 43 10 492 10 1163 l0 1092 -390 0 -390 0 0
-1022 c0 -578 -5 -1054 -10 -1095 -11 -88 -35 -137 -89 -186 -77 -70 -71 -172
-71 1133 l0 1170 -395 0 -395 0 0 -1590z"/>
</g>
</svg>
