<?xml version="1.0" encoding="UTF-8"?>
<svg id="Layer_2" data-name="Layer 2" xmlns="http://www.w3.org/2000/svg" viewBox="0 0 404.82 365.18">
  <defs>
    <style>
      .cls-1 {
        fill: #fff;
      }

      .cls-2 {
        fill: none;
        stroke: #dc2e2c;
        stroke-miterlimit: 10;
        stroke-width: 7px;
      }
    </style>
  </defs>
  <g id="Layer_1-2" data-name="Layer 1">
    <g>
      <path d="M276.38,0H128.43c-19.46,0-37.44,10.38-47.16,27.23L7.3,155.36c-9.73,16.85-9.73,37.61,0,54.46l73.97,128.13c9.73,16.85,27.71,27.23,47.16,27.23h147.95c19.46,0,37.44-10.38,47.16-27.23l73.97-128.13c9.73-16.85,9.73-37.61,0-54.46L323.55,27.23C313.82,10.38,295.84,0,276.38,0Z"/>
      <path class="cls-2" d="M263.22,40.39h-121.63c-13.17,0-25.34,7.03-31.93,18.43l-60.81,105.33c-6.59,11.41-6.59,25.46,0,36.87l60.81,105.33c6.59,11.41,18.76,18.43,31.93,18.43h121.63c13.17,0,25.34-7.03,31.93-18.43l60.81-105.33c6.59-11.41,6.59-25.46,0-36.87l-60.81-105.33c-6.59-11.41-18.76-18.43-31.93-18.43Z"/>
      <g>
        <path class="cls-1" d="M79.49,182.73c3.52-6.06,7.05-12.11,10.55-18.18,17.43-30.17,34.85-60.34,52.25-90.53,.5-.86,1.03-1.14,2.02-1.14,41.31,.03,82.62,.02,123.92,.02h1.48c-.26,.48-.45,.85-.65,1.21-3.58,6.21-7.18,12.4-10.72,18.63-.53,.93-1.09,1.29-2.19,1.29-33.16-.03-66.31-.02-99.47-.06-1.2,0-1.78,.4-2.35,1.39-16.6,28.8-33.22,57.58-49.87,86.35-.5,.86-.47,1.47,.02,2.32,16.69,28.84,33.35,57.69,49.99,86.55,.5,.87,1.04,1.14,2.02,1.14,33.59-.03,67.17-.02,100.76,0,.37,0,.92,.25,1.1,.55,3.83,6.56,7.62,13.14,11.41,19.72,.11,.19,.17,.41,.32,.8h-1.37c-41.5,0-83.01,0-124.51,.03-.98,0-1.44-.36-1.9-1.15-20.68-35.84-41.38-71.68-62.07-107.51-.23-.41-.49-.8-.74-1.2,0-.08,0-.16,0-.24Z"/>
        <path class="cls-1" d="M180.04,265.57c2.26-3.89,4.42-7.61,6.59-11.33,1.71-2.95,3.44-5.88,5.12-8.85,.35-.63,.76-.85,1.48-.84,2.98,.04,5.96-.03,8.94,.05,.93,.02,1.37-.33,1.81-1.09,14.92-25.88,29.87-51.75,44.81-77.61,.2-.34,.4-.67,.67-1.14,.25,.41,.46,.73,.65,1.05,3.49,6.03,6.97,12.07,10.49,18.09,.44,.75,.41,1.28-.02,2.01-11.05,19.08-22.07,38.17-33.09,57.25-.23,.4-.44,.81-.73,1.35,.46,.02,.79,.05,1.12,.05,4.31,0,8.62-.01,12.93,.02,.75,0,1.18-.18,1.58-.87,11.41-19.81,22.85-39.61,34.29-59.41,.34-.6,.45-1.05,.07-1.7-8.76-15.11-17.49-30.23-26.22-45.35-.12-.2-.25-.39-.43-.68-.26,.42-.49,.77-.7,1.14-19.8,34.28-39.58,68.56-59.39,102.83-4.68,8.1-9.44,16.15-14.14,24.24-.36,.62-.75,.87-1.48,.86-4.78-.03-9.56-.03-14.35,0-.73,0-1.11-.26-1.47-.88-15.47-26.83-30.96-53.65-46.46-80.46-.38-.66-.4-1.14-.01-1.81,15.51-26.81,30.99-53.63,46.47-80.46,.34-.58,.66-.92,1.43-.92,25.75,.02,51.5,.02,77.25,.02,.22,0,.45,.02,.8,.04-.22,.44-.37,.78-.56,1.11-3.68,6.33-7.37,12.65-11.02,19-.43,.75-.91,.99-1.76,.99-17.4-.03-34.81-.01-52.21-.04-.87,0-1.38,.19-1.85,1.01-11.35,19.72-22.72,39.41-34.13,59.1-.46,.8-.42,1.34,.03,2.1,9.44,16.29,18.86,32.61,28.28,48.91,.21,.36,.43,.71,.73,1.2,.31-.51,.55-.89,.78-1.29,20.37-35.26,40.72-70.52,61.1-105.77,4.92-8.51,9.91-16.97,14.84-25.47,.37-.65,.77-.94,1.56-.92,2.94,.05,5.88,.07,8.82,0,1.03-.03,1.58,.29,2.11,1.2,13.13,22.8,26.3,45.58,39.46,68.36,2.27,3.93,4.53,7.87,6.83,11.79,.38,.64,.43,1.1,.03,1.79-15.51,26.81-31,53.63-46.47,80.45-.38,.66-.78,.92-1.56,.92-23.95-.02-47.9-.02-71.84-.02-.31,0-.61-.03-1.15-.06Z"/>
      </g>
    </g>
  </g>
</svg>