<?xml version="1.0" standalone="no"?>
<!DOCTYPE svg PUBLIC "-//W3C//DTD SVG 20010904//EN"
 "http://www.w3.org/TR/2001/REC-SVG-20010904/DTD/svg10.dtd">
<svg version="1.0" xmlns="http://www.w3.org/2000/svg"
 width="1080.000000pt" height="1080.000000pt" viewBox="0 0 1080.000000 1080.000000"
 preserveAspectRatio="xMidYMid meet">

<g transform="translate(0.000000,1080.000000) scale(0.100000,-0.100000)"
fill="#000000" stroke="none">
<path d="M3010 6310 l0 -1590 395 0 395 0 0 475 0 475 79 0 80 0 4 -692 c4
-771 1 -737 74 -882 50 -99 163 -210 263 -260 141 -68 84 -66 1561 -66 l1329
0 0 395 0 395 -712 2 -713 3 -3 1668 -2 1667 -395 0 -395 0 0 -1670 0 -1671
-107 3 -108 3 -3 1668 -2 1667 -395 0 -395 0 0 -715 0 -715 -80 0 -80 0 0 715
0 715 -395 0 -395 0 0 -1590z"/>
<path d="M5960 6310 l0 -1590 358 0 c369 1 454 6 583 40 228 59 456 209 596
394 93 122 167 313 193 491 6 43 10 492 10 1163 l0 1092 -390 0 -390 0 0
-1022 c0 -578 -5 -1054 -10 -1095 -11 -88 -35 -137 -89 -186 -77 -70 -71 -172
-71 1133 l0 1170 -395 0 -395 0 0 -1590z"/>
<path d="M4471 3488 c-5 -18 -19 -77 -31 -130 l-22 -96 -52 -7 c-28 -3 -70 -9
-93 -12 -51 -6 -50 -13 -23 142 10 60 17 111 15 114 -2 2 -10 1 -18 -2 -10 -4
-16 -31 -21 -84 -16 -183 -16 -183 -45 -183 -31 0 -71 -25 -71 -44 0 -7 14
-38 30 -69 17 -31 30 -70 30 -87 0 -31 14 -41 23 -17 3 8 11 57 18 110 9 72
16 98 28 101 22 7 174 27 176 24 1 -2 -3 -41 -10 -88 -21 -147 -25 -204 -15
-220 16 -24 30 7 23 55 -5 39 11 208 23 240 4 10 20 15 50 15 26 0 44 5 44 11
0 8 -15 10 -45 6 -39 -4 -45 -2 -41 12 3 9 12 50 21 91 9 41 23 92 31 113 12
32 12 37 0 37 -8 0 -19 -15 -25 -32z m-275 -324 c-3 -26 -6 -55 -6 -65 0 -33
-16 -20 -40 32 -24 50 -24 51 -5 65 10 8 28 14 38 14 18 0 19 -5 13 -46z"/>
<path d="M6435 3494 c-26 -26 -50 -80 -105 -239 -63 -179 -92 -239 -126 -261
-24 -16 -26 -16 -45 3 -44 43 -51 184 -19 363 20 109 20 134 0 114 -16 -16
-42 -254 -37 -341 5 -89 30 -156 60 -161 65 -12 89 22 178 262 35 94 78 192
96 219 18 27 33 51 33 53 0 10 -20 3 -35 -12z"/>
<path d="M5658 3473 c-28 -32 -47 -80 -78 -194 -41 -148 -41 -149 -74 -114
-15 16 -26 40 -26 56 0 30 -17 39 -26 15 -7 -19 20 -70 51 -94 l25 -20 -30
-40 c-16 -23 -43 -48 -60 -57 -69 -36 -23 -50 162 -50 117 0 140 3 155 17 25
26 7 35 -29 13 -36 -21 -153 -26 -241 -12 l-48 8 43 38 c24 21 50 50 57 65 8
15 23 26 35 26 11 0 36 11 56 25 83 57 141 218 107 298 -18 42 -52 50 -79 20z
m60 -24 c38 -71 -55 -272 -140 -302 -22 -8 -22 -4 -4 31 8 15 28 81 45 146 39
151 67 186 99 125z"/>
<path d="M4994 3366 c-15 -30 -22 -34 -68 -40 -28 -3 -61 -3 -73 0 -15 4 -23
2 -23 -6 0 -8 20 -11 70 -8 44 2 68 -1 65 -7 -2 -5 -10 -30 -17 -53 -12 -40
-18 -46 -77 -73 -35 -16 -65 -29 -66 -29 -2 0 -8 13 -13 29 -11 32 1 53 24 44
9 -3 14 1 14 12 0 28 -51 15 -70 -19 -9 -16 -33 -38 -54 -49 -31 -16 -42 -18
-63 -8 -19 9 -24 17 -19 34 7 29 -7 50 -30 45 -38 -7 -87 -118 -52 -118 6 0
22 10 35 22 18 17 26 19 35 10 17 -17 67 -14 114 7 40 18 41 18 53 -1 11 -17
9 -24 -13 -47 -31 -32 -35 -71 -7 -71 24 0 42 22 50 62 7 34 41 60 93 73 26 7
26 6 21 -34 -9 -63 2 -91 35 -91 27 0 113 47 126 69 4 5 13 8 22 4 8 -3 26 5
40 18 19 17 27 20 36 11 7 -7 26 -12 43 -12 33 0 108 31 120 50 14 23 -4 22
-37 -3 -44 -33 -73 -41 -99 -27 -15 8 -19 18 -15 33 3 12 1 28 -3 36 -14 23
-44 8 -74 -38 -59 -87 -126 -138 -163 -124 -21 8 -15 90 15 184 l21 67 55 7
c30 3 80 3 110 0 40 -5 55 -4 55 5 0 9 -28 11 -105 8 -58 -1 -105 -1 -105 2 0
3 7 14 15 24 17 23 19 36 5 36 -6 0 -18 -15 -26 -34z m-409 -187 c-9 -17 -19
-28 -22 -25 -6 6 23 56 32 56 3 0 -2 -14 -10 -31z m570 0 c-9 -17 -19 -28 -22
-25 -6 6 23 56 32 56 3 0 -2 -14 -10 -31z m-362 -89 c-6 -24 -33 -49 -33 -31
0 18 19 51 29 51 5 0 7 -9 4 -20z"/>
<path d="M6814 3366 c-15 -30 -22 -34 -68 -40 -28 -3 -61 -3 -73 0 -15 4 -23
2 -23 -6 0 -8 20 -11 70 -8 44 2 68 -1 65 -7 -2 -5 -10 -30 -17 -53 -12 -40
-18 -46 -77 -73 -35 -16 -65 -29 -66 -29 -2 0 -8 13 -13 29 -11 32 1 53 24 44
9 -3 14 1 14 12 0 21 -50 17 -60 -5 -21 -46 -31 -57 -75 -87 -26 -19 -53 -32
-59 -30 -19 6 -17 40 4 81 21 42 20 52 -4 43 -20 -8 -40 -79 -32 -111 9 -37
42 -34 107 9 47 32 54 34 68 21 13 -14 12 -19 -12 -44 -32 -33 -36 -72 -8 -72
24 0 42 22 50 62 7 34 41 60 93 73 26 7 26 6 21 -34 -9 -63 2 -91 35 -91 27 0
113 47 126 69 4 5 13 8 22 4 8 -3 26 5 40 18 19 17 27 20 36 11 7 -7 26 -12
43 -12 33 0 108 31 120 50 14 23 -4 22 -37 -3 -44 -33 -73 -41 -99 -27 -15 8
-19 18 -15 33 3 12 1 28 -3 36 -14 23 -44 8 -74 -38 -59 -87 -126 -138 -163
-124 -21 8 -15 90 15 184 l21 67 55 7 c30 3 80 3 110 0 40 -5 55 -4 55 5 0 9
-28 11 -105 8 -58 -1 -105 -1 -105 2 0 3 7 14 15 24 17 23 19 36 5 36 -6 0
-18 -15 -26 -34z m161 -187 c-9 -17 -19 -28 -22 -25 -6 6 23 56 32 56 3 0 -2
-14 -10 -31z m-362 -89 c-6 -24 -33 -49 -33 -31 0 18 19 51 29 51 5 0 7 -9 4
-20z"/>
<path d="M6480 3280 c0 -5 7 -10 15 -10 8 0 15 5 15 10 0 6 -7 10 -15 10 -8 0
-15 -4 -15 -10z"/>
<path d="M5788 3223 c-36 -41 -51 -103 -26 -103 6 0 22 10 35 22 18 17 26 19
35 10 7 -7 26 -12 43 -12 33 0 108 31 120 50 14 23 -4 22 -37 -3 -44 -33 -73
-41 -99 -27 -14 8 -19 18 -16 32 12 45 -25 65 -55 31z m17 -44 c-9 -17 -19
-28 -22 -25 -6 6 23 56 32 56 3 0 -2 -14 -10 -31z"/>
</g>
</svg>
