<?xml version="1.0" encoding="UTF-8" standalone="no" ?>
<!DOCTYPE svg PUBLIC "-//W3C//DTD SVG 1.1//EN" "http://www.w3.org/Graphics/SVG/1.1/DTD/svg11.dtd">
<svg xmlns="http://www.w3.org/2000/svg" xmlns:xlink="http://www.w3.org/1999/xlink" version="1.1" width="1080" height="1080" viewBox="0 0 1080 1080" xml:space="preserve">
<desc>Created with Fabric.js 5.2.4</desc>
<defs>
</defs>
<g transform="matrix(1 0 0 1 540 540)" id="28f83922-152f-44ed-87ba-c6a4927a32ef"  >
<rect style="stroke: none; stroke-width: 1; stroke-dasharray: none; stroke-linecap: butt; stroke-dashoffset: 0; stroke-linejoin: miter; stroke-miterlimit: 4; fill: rgb(255,255,255); fill-rule: nonzero; opacity: 1; visibility: hidden;" vector-effect="non-scaling-stroke"  x="-540" y="-540" rx="0" ry="0" width="1080" height="1080" />
</g>
<g transform="matrix(1 0 0 1 540 540)" id="77fd7b49-e1d0-43c6-9c0b-3660dc2c02b8"  >
</g>
<g transform="matrix(1.81 0 0 1.81 540 540)"  >
<g style="" vector-effect="non-scaling-stroke"   >
		<g transform="matrix(1 0 0 1 -25.53 -41.97)"  >
<path style="stroke: none; stroke-width: 1; stroke-dasharray: none; stroke-linecap: butt; stroke-dashoffset: 0; stroke-linejoin: miter; stroke-miterlimit: 4; fill: rgb(254,255,254); fill-rule: evenodd; opacity: 0.989;" vector-effect="non-scaling-stroke"  transform=" translate(-509.5, -496.03)" d="M 299.5 289.5 C 326.5 289.5 353.5 289.5 380.5 289.5 C 380.5 337.167 380.5 384.833 380.5 432.5 C 385.5 432.5 390.5 432.5 395.5 432.5 C 395.5 384.833 395.5 337.167 395.5 289.5 C 422.167 289.5 448.833 289.5 475.5 289.5 C 475.5 400.5 475.5 511.5 475.5 622.5 C 482.5 622.5 489.5 622.5 496.5 622.5 C 496.5 511.5 496.5 400.5 496.5 289.5 C 523.167 289.5 549.833 289.5 576.5 289.5 C 576.5 400.5 576.5 511.5 576.5 622.5 C 624.167 622.5 671.833 622.5 719.5 622.5 C 719.5 649.167 719.5 675.833 719.5 702.5 C 628.499 702.667 537.499 702.5 446.5 702 C 418.106 695.606 401.272 678.106 396 649.5 C 395.5 603.835 395.333 558.168 395.5 512.5 C 390.5 512.5 385.5 512.5 380.5 512.5 C 380.5 544.167 380.5 575.833 380.5 607.5 C 353.5 607.5 326.5 607.5 299.5 607.5 C 299.5 501.5 299.5 395.5 299.5 289.5 Z" stroke-linecap="round" />
</g>
		<g transform="matrix(1 0 0 1 148 -89.47)"  >
<path style="stroke: none; stroke-width: 1; stroke-dasharray: none; stroke-linecap: butt; stroke-dashoffset: 0; stroke-linejoin: miter; stroke-miterlimit: 4; fill: rgb(210,1,0); fill-rule: evenodd; opacity: 0.991;" vector-effect="non-scaling-stroke"  transform=" translate(-683.03, -448.53)" d="M 595.5 289.5 C 622.167 289.5 648.833 289.5 675.5 289.5 C 675.167 367.17 675.5 444.836 676.5 522.5 C 684.237 518.029 688.737 511.362 690 502.5 C 690.5 431.501 690.667 360.501 690.5 289.5 C 717.167 289.5 743.833 289.5 770.5 289.5 C 770.667 361.834 770.5 434.167 770 506.5 C 765.556 554.892 740.389 587.059 694.5 603 C 688.248 604.717 681.914 606.05 675.5 607 C 648.835 607.5 622.169 607.667 595.5 607.5 C 595.5 501.5 595.5 395.5 595.5 289.5 Z" stroke-linecap="round" />
</g>
		<g transform="matrix(1 0 0 1 -103.53 218.97)"  >
<path style="stroke: none; stroke-width: 1; stroke-dasharray: none; stroke-linecap: butt; stroke-dashoffset: 0; stroke-linejoin: miter; stroke-miterlimit: 4; fill: rgb(254,254,254); fill-rule: evenodd; opacity: 0.872;" vector-effect="non-scaling-stroke"  transform=" translate(-431.5, -756.97)" d="M 447.5 727.5 C 448.675 727.281 449.675 727.614 450.5 728.5 C 447.246 736.184 445.246 744.184 444.5 752.5 C 447.247 752.187 449.914 752.52 452.5 753.5 C 449.045 753.961 445.878 754.961 443 756.5 C 441.202 765.299 440.702 774.132 441.5 783 C 441.612 784.662 440.946 785.829 439.5 786.5 C 437.976 785.473 437.309 783.973 437.5 782 C 438.347 772.882 439.68 763.882 441.5 755 C 435.491 755.167 429.491 755.834 423.5 757 C 423 757.5 422.5 758 422 758.5 C 421.093 765.181 420.093 771.848 419 778.5 C 418.586 778.957 418.086 779.291 417.5 779.5 C 416.117 773.122 413.784 767.122 410.5 761.5 C 412.372 757.23 415.705 755.563 420.5 756.5 C 421.233 747.505 421.899 738.505 422.5 729.5 C 423.833 729.5 425.167 729.5 426.5 729.5 C 424.95 738.132 423.617 746.798 422.5 755.5 C 428.833 754.833 435.167 754.167 441.5 753.5 C 442.876 744.666 444.876 735.999 447.5 727.5 Z M 415.5 758.5 C 416.833 758.5 418.167 758.5 419.5 758.5 C 419.355 763.035 418.522 767.368 417 771.5 C 415.5 768.5 414 765.5 412.5 762.5 C 413.172 760.84 414.172 759.507 415.5 758.5 Z" stroke-linecap="round" />
</g>
		<g transform="matrix(1 0 0 1 93.11 217.46)"  >
<path style="stroke: none; stroke-width: 1; stroke-dasharray: none; stroke-linecap: butt; stroke-dashoffset: 0; stroke-linejoin: miter; stroke-miterlimit: 4; fill: rgb(254,254,254); fill-rule: evenodd; opacity: 0.847;" vector-effect="non-scaling-stroke"  transform=" translate(-628.14, -755.46)" d="M 643.5 728.5 C 644.675 728.281 645.675 728.614 646.5 729.5 C 638.503 742.642 632.337 756.642 628 771.5 C 626.46 775.419 624.293 778.919 621.5 782 C 618.331 782.978 615.497 782.478 613 780.5 C 611.25 777.754 610.25 774.754 610 771.5 C 609.325 758.074 610.158 744.741 612.5 731.5 C 613.5 731.5 614.5 731.5 615.5 731.5 C 613.467 741.566 612.134 751.732 611.5 762 C 611.323 767.659 612.156 773.159 614 778.5 C 616.667 782.5 619.333 782.5 622 778.5 C 623.586 776.33 624.92 773.996 626 771.5 C 630.136 759.424 634.47 747.424 639 735.5 C 640.511 733.138 642.011 730.805 643.5 728.5 Z" stroke-linecap="round" />
</g>
		<g transform="matrix(1 0 0 1 23.4 218.32)"  >
<path style="stroke: none; stroke-width: 1; stroke-dasharray: none; stroke-linecap: butt; stroke-dashoffset: 0; stroke-linejoin: miter; stroke-miterlimit: 4; fill: rgb(254,254,254); fill-rule: evenodd; opacity: 0.875;" vector-effect="non-scaling-stroke"  transform=" translate(-558.43, -756.32)" d="M 565.5 730.5 C 570.104 729.379 572.937 731.045 574 735.5 C 575.017 746.116 571.85 755.283 564.5 763 C 561.542 765.312 558.209 766.812 554.5 767.5 C 551.69 772.144 548.023 775.977 543.5 779 C 554.303 782.771 564.803 782.271 575 777.5 C 576.257 777.85 576.591 778.517 576 779.5 C 574.829 780.893 573.329 781.727 571.5 782 C 561.399 782.96 551.399 782.46 541.5 780.5 C 540.479 779.998 540.312 779.332 541 778.5 C 546.167 776 550 772.167 552.5 767 C 547.235 764.555 544.568 760.389 544.5 754.5 C 545.5 754.5 546.5 754.5 547.5 754.5 C 547.19 759.213 549.023 762.88 553 765.5 C 555.937 757.688 558.27 749.688 560 741.5 C 561.319 737.528 563.153 733.861 565.5 730.5 Z M 556.5 764.5 C 559.152 755.563 561.652 746.563 564 737.5 C 567.857 729.791 570.69 730.458 572.5 739.5 C 571.273 748.788 567.273 756.621 560.5 763 C 559.255 763.791 557.922 764.291 556.5 764.5 Z" stroke-linecap="round" />
</g>
		<g transform="matrix(1 0 0 1 -41.93 219.47)"  >
<path style="stroke: none; stroke-width: 1; stroke-dasharray: none; stroke-linecap: butt; stroke-dashoffset: 0; stroke-linejoin: miter; stroke-miterlimit: 4; fill: rgb(254,254,254); fill-rule: evenodd; opacity: 0.868;" vector-effect="non-scaling-stroke"  transform=" translate(-493.1, -757.47)" d="M 499.5 739.5 C 500.5 739.5 501.5 739.5 502.5 739.5 C 502.617 741.484 501.95 743.15 500.5 744.5 C 507.167 745.167 513.833 745.833 520.5 746.5 C 513.107 745.839 505.774 746.505 498.5 748.5 C 496.22 754.674 494.553 761.007 493.5 767.5 C 493.848 773.84 496.514 775.006 501.5 771 C 506.58 766.591 510.914 761.591 514.5 756 C 519.167 755 520.5 756.667 518.5 761 C 519.414 762.914 520.914 764.081 523 764.5 C 526.856 763.149 530.356 761.149 533.5 758.5 C 534.282 760.329 533.616 761.829 531.5 763 C 526.487 765.927 521.487 766.094 516.5 763.5 C 514.951 767.17 512.451 768.17 509 766.5 C 505.555 770.717 501.222 773.384 496 774.5 C 494.564 774.441 493.231 774.108 492 773.5 C 491.207 769.577 491.374 765.744 492.5 762 C 488.935 761.964 485.602 762.964 482.5 765 C 480.966 767.966 479.8 771.133 479 774.5 C 476.482 776.028 474.315 775.694 472.5 773.5 C 474.115 770.55 476.115 767.884 478.5 765.5 C 477.833 764.167 476.833 763.167 475.5 762.5 C 470.237 765.831 464.903 766.165 459.5 763.5 C 458.125 766.547 455.792 767.88 452.5 767.5 C 451.77 760.423 454.77 756.59 461.5 756 C 462.833 757.667 462.833 759.333 461.5 761 C 462.414 762.914 463.914 764.081 466 764.5 C 471.174 762.846 475.007 759.679 477.5 755 C 479.134 754.506 480.801 754.34 482.5 754.5 C 482.5 755.5 482.5 756.5 482.5 757.5 C 481.167 757.5 479.833 757.5 478.5 757.5 C 478.264 760.226 479.097 762.559 481 764.5 C 484.636 762.266 488.469 760.432 492.5 759 C 493.801 755.596 494.801 752.096 495.5 748.5 C 490.786 748.827 486.12 748.493 481.5 747.5 C 486.831 747.776 492.164 747.109 497.5 745.5 C 498.747 743.677 499.414 741.677 499.5 739.5 Z M 477.5 769.5 C 478.334 771.263 477.834 772.93 476 774.5 C 475.387 772.505 475.887 770.838 477.5 769.5 Z" stroke-linecap="round" />
</g>
		<g transform="matrix(1 0 0 1 143.69 219.47)"  >
<path style="stroke: none; stroke-width: 1; stroke-dasharray: none; stroke-linecap: butt; stroke-dashoffset: 0; stroke-linejoin: miter; stroke-miterlimit: 4; fill: rgb(254,254,254); fill-rule: evenodd; opacity: 0.869;" vector-effect="non-scaling-stroke"  transform=" translate(-678.73, -757.47)" d="M 681.5 739.5 C 682.5 739.5 683.5 739.5 684.5 739.5 C 684.617 741.484 683.95 743.15 682.5 744.5 C 689.167 745.167 695.833 745.833 702.5 746.5 C 695.107 745.839 687.774 746.505 680.5 748.5 C 678.22 754.674 676.553 761.007 675.5 767.5 C 675.848 773.84 678.514 775.006 683.5 771 C 688.58 766.591 692.914 761.591 696.5 756 C 701.167 755 702.5 756.667 700.5 761 C 701.414 762.914 702.914 764.081 705 764.5 C 708.856 763.149 712.356 761.149 715.5 758.5 C 716.282 760.329 715.616 761.829 713.5 763 C 708.487 765.927 703.487 766.094 698.5 763.5 C 696.951 767.17 694.451 768.17 691 766.5 C 687.555 770.717 683.222 773.384 678 774.5 C 676.564 774.441 675.231 774.108 674 773.5 C 673.207 769.577 673.374 765.744 674.5 762 C 670.935 761.964 667.602 762.964 664.5 765 C 662.966 767.966 661.8 771.133 661 774.5 C 658.482 776.028 656.315 775.694 654.5 773.5 C 656.115 770.55 658.115 767.884 660.5 765.5 C 659.855 764.354 659.022 763.354 658 762.5 C 654.313 765.758 650.146 768.092 645.5 769.5 C 644.228 769.43 643.062 769.097 642 768.5 C 641.075 763.976 641.908 759.809 644.5 756 C 645.635 755.251 646.635 755.417 647.5 756.5 C 645.889 759.387 644.556 762.387 643.5 765.5 C 643.453 767 644.119 768 645.5 768.5 C 651.805 765.548 656.471 761.048 659.5 755 C 661.134 754.506 662.801 754.34 664.5 754.5 C 664.5 755.5 664.5 756.5 664.5 757.5 C 663.167 757.5 661.833 757.5 660.5 757.5 C 660.264 760.226 661.097 762.559 663 764.5 C 666.636 762.266 670.469 760.432 674.5 759 C 675.801 755.596 676.801 752.096 677.5 748.5 C 672.786 748.827 668.12 748.493 663.5 747.5 C 668.831 747.776 674.164 747.109 679.5 745.5 C 680.747 743.677 681.414 741.677 681.5 739.5 Z M 659.5 769.5 C 660.334 771.263 659.834 772.93 658 774.5 C 657.387 772.505 657.887 770.838 659.5 769.5 Z" stroke-linecap="round" />
</g>
		<g transform="matrix(1 0 0 1 113.47 213.46)"  >
<path style="stroke: none; stroke-width: 1; stroke-dasharray: none; stroke-linecap: butt; stroke-dashoffset: 0; stroke-linejoin: miter; stroke-miterlimit: 4; fill: rgb(254,254,254); fill-rule: evenodd; opacity: 0.815;" vector-effect="non-scaling-stroke"  transform=" translate(-648.5, -751.46)" d="M 647.5 750.5 C 648.675 750.281 649.675 750.614 650.5 751.5 C 649.277 752.614 647.944 752.781 646.5 752 C 647.056 751.617 647.389 751.117 647.5 750.5 Z" stroke-linecap="round" />
</g>
		<g transform="matrix(1 0 0 1 51.58 223.49)"  >
<path style="stroke: none; stroke-width: 1; stroke-dasharray: none; stroke-linecap: butt; stroke-dashoffset: 0; stroke-linejoin: miter; stroke-miterlimit: 4; fill: rgb(254,254,254); fill-rule: evenodd; opacity: 0.863;" vector-effect="non-scaling-stroke"  transform=" translate(-586.61, -761.49)" d="M 579.5 755.5 C 584.159 755.015 585.492 756.848 583.5 761 C 584.414 762.914 585.914 764.081 588 764.5 C 591.856 763.149 595.356 761.149 598.5 758.5 C 599.282 760.329 598.616 761.829 596.5 763 C 591.487 765.927 586.487 766.094 581.5 763.5 C 580.125 766.547 577.792 767.88 574.5 767.5 C 573.978 762.549 575.645 758.549 579.5 755.5 Z" stroke-linecap="round" />
</g>
</g>
</g>
</svg>